<?xml version="1.0" encoding="utf-8" ?>
<svg baseProfile="full" height="800px" version="1.1" width="800px" xmlns="http://www.w3.org/2000/svg" xmlns:ev="http://www.w3.org/2001/xml-events" xmlns:xlink="http://www.w3.org/1999/xlink"><defs /><polyline clip-path="url(#border_clip)" fill="none" points="400.5,400.5 401.4998476951564,400.51745240643726 402.49923852217546,400.55235190313977 403.4978680569301,400.60468785938275 404.4954321071899,400.67444433312687 405.4916268052816,400.7616000758745 406.4861487006499,400.86612853914215 407.47869485229126,400.9879978825473 408.4689629210328,401.12717098350737 409.45665126162794,401.28360544854763 410.44145901464015,401.45725362621454 411.4230861980878,401.64806262159107 412.40123379882164,401.8559743124088 413.37560386360684,402.0809253667527 414.34589958988283,402.32284726235235 415.3118254161719,402.5816663074549 416.27308711211026,402.8573036632719 417.22939186807326,403.14967536799463 418.18044838436845,403.45869236236956 419.12596695996774,403.78426051682675 420.0656595807537,404.1262806601524 420.9992400072509,404.48464860969773 421.9264238618176,404.8592552031136 422.8469287152701,405.2499863316029 423.76047417291267,405.6567229746787 424.66678195994933,406.0793412364194 425.56557600624853,406.51771238320845 426.4565825304369,406.971702882948 427.3395301232958,407.4411744457339 428.2141498304352,407.92598406598023 429.0801752342196,408.42598406598023 429.93734253492175,408.9410221408903 430.7853906310782,409.4709414051235 431.6240611990236,410.01558044013854 432.45309877157865,410.5747733436093 433.27225081586766,411.1483497799603 434.0812678102426,411.7361350322528 434.8799033202899,412.33795005540486 435.6679140738966,412.9536115307305 436.44506003535355,413.58293192178036 437.2111044784725,414.2257195314669 437.96581405869534,414.8817785604574 438.7089588841727,415.55090916681627" stroke="black" stroke-linecap="round" stroke-width="1" /><polyline clip-path="url(#border_clip)" fill="none" points="438.7089588841727,415.55090916681627 439.4403125857919,416.23290752687876 440.1596523861305,416.92756589733773 440.86675916731707,417.6346726785243 441.5614175377761,418.35401247886296 442.2434158978386,419.08536618048214 442.91254650419745,419.8285110059595 443.56860553318796,420.5832205861823 444.2113931428745,421.34926502930125 444.8407135339243,422.12641099075825 445.45637500925,422.914421744365 446.058190032402,423.71305725441226 446.6459752846945,424.5220742487872 447.21955172104555,425.3412262930762 447.7787446245163,426.1702638656312 448.3233836595313,427.00893443357666 448.85330292376455,427.8569825297331 449.3683409986746,428.7141498304352 449.8683409986746,429.58017523421967 450.35315061892095,430.45479494135907 450.82262218170683,431.33774253421797 451.27661268144635,432.2287490584064 451.71498382823546,433.1275431047055 452.13760208997616,434.0338508917422 452.544338733052,434.9473963493848 452.93506986154125,435.86790120283723 453.3096764549571,436.79508505740404 453.66804440450244,437.72866548390124 454.0100645478281,438.6683581046871 454.3356327022853,439.61387668028647 454.6446496966602,440.5649331965816 454.93702140138294,441.52123795254465 455.21265875719996,442.482499648483 455.4714778023025,443.448425474772 455.71339969790216,444.418721201048 455.93835075224604,445.3930912658333 456.1462624430638,446.37123886656707 456.3370714384403,447.35286605001477 456.5107196161073,448.337673803027 456.6671540811475,449.3253621436221 456.80632718210757,450.31563021236366 456.9281965255127,451.308176364005 457.03272498878033,452.30269825937324" stroke="black" stroke-linecap="round" stroke-width="1" /><polyline clip-path="url(#border_clip)" fill="none" points="457.03272498878033,452.30269825937324 457.11988073152804,453.298892957465 457.18963720527216,454.2964570077248 457.2419731615151,455.2950865424794 457.2768726582176,456.2944773694985 457.29432506465486,457.2943250646549 457.29432506465486,458.2943250646549 457.2768726582176,459.2941727598113 457.2419731615151,460.29356358683043 457.18963720527216,461.292193121585 457.11988073152804,462.2897571718448 457.03272498878033,463.2859518699366 456.9281965255127,464.28047376530486 456.80632718210757,465.27301991694617 456.6671540811475,466.2632879856877 456.5107196161073,467.25097632628285 456.3370714384403,468.23578407929506 456.1462624430638,469.21741126274276 455.93835075224604,470.19555886347655 455.71339969790216,471.1699289282618 455.4714778023025,472.1402246545378 455.21265875719996,473.10615048082684 454.93702140138294,474.0674121767652 454.6446496966602,475.02371693272823 454.3356327022853,475.97477344902336 454.0100645478281,476.9202920246227 453.66804440450244,477.8599846454086 453.3096764549571,478.7935650719058 452.93506986154125,479.7207489264726 452.544338733052,480.641253779925 452.13760208997616,481.55479923756764 451.71498382823546,482.4611070246043 451.27661268144635,483.35990107090345 450.82262218170683,484.2509075950918 450.35315061892095,485.13385518795076 449.8683409986746,486.00847489509016 449.3683409986746,486.87450029887464 448.85330292376455,487.7316675995767 448.3233836595313,488.57971569573317 447.7787446245163,489.4183862636786 447.21955172104555,490.2474238362336 446.6459752846945,491.06657588052263 446.058190032402,491.8755928748976" stroke="black" stroke-linecap="round" stroke-width="1" /><polyline clip-path="url(#border_clip)" fill="none" points="446.058190032402,491.8755928748976 445.45637500925,492.67422838494485 444.8407135339243,493.4622391385516 444.2113931428745,494.2393851000086 443.5686055331879,495.00542954312755 442.9125465041974,495.76013912335037 442.24341589783853,496.50328394882774 441.56141753777604,497.2346376504469 440.86675916731707,497.9539774507856 440.1596523861305,498.66108423197215 439.44031258579184,499.3557426024311 438.70895888417266,500.0377409624937 437.9658140586953,500.70687156885253 437.2111044784725,501.36293059784305 436.44506003535355,502.0057182075295 435.66791407389655,502.6350385985794 434.8799033202898,503.2507000739051 434.08126781024254,503.8525150970571 433.2722508158676,504.4403003493496 432.4530987715786,505.01387678570063 431.6240611990236,505.5730696891714 430.78539063107814,506.1177087241864 429.9373425349217,506.64762798841963 429.08017523421955,507.16266606332965 428.21414983043513,507.66266606332965 427.33953012329573,508.14747568357603 426.4565825304368,508.6169472463619 425.5655760062484,509.07093774610144 424.6667819599493,509.50930889289054 423.7604741729126,509.93192715463124 422.84692871527,510.33866379770706 421.92642386181757,510.72939492619633 420.99924000725076,511.1040015196122 420.06565958075356,511.4623694691575 419.1259669599676,511.8043896124832 418.18044838436833,512.1299577669404 417.22939186807315,512.4389747613153 416.27308711211015,512.7313464660381 415.3118254161718,513.0069838218551 414.3458995898827,513.2658028669575 413.3756038636067,513.5077247625572 412.40123379882147,513.7326758169011 411.4230861980877,513.9405875077189" stroke="black" stroke-linecap="round" stroke-width="1" /><polyline clip-path="url(#border_clip)" fill="none" points="411.4230861980877,513.9405875077189 410.44145901464003,514.1313965030954 409.45665126162777,514.3050446807623 408.46896292103264,514.4614791458026 407.4786948522911,514.6006522467626 406.4861487006498,514.7225215901678 405.4916268052815,514.8270500534354 404.49543210718974,514.9142057961831 403.4978680569299,514.9839622699272 402.4992385221753,515.0362982261702 401.49984769515623,515.0711977228727 400.49999999999983,515.0886501293099 399.49999999999983,515.0886501293099 398.5001523048434,515.0711977228727 397.5007614778243,515.0362982261702 396.50213194306974,514.9839622699272 395.5045678928099,514.9142057961831 394.50837319471816,514.8270500534354 393.5138512993499,514.7225215901678 392.5213051477085,514.6006522467626 391.53103707896696,514.4614791458026 390.54334873837183,514.3050446807623 389.5585409853596,514.1313965030954 388.5769138019119,513.9405875077189 387.59876620117814,513.7326758169011 386.6243961363929,513.5077247625572 385.6541004101169,513.2658028669575 384.6881745838278,513.0069838218551 383.7269128878895,512.7313464660381 382.77060813192645,512.4389747613153 381.81955161563127,512.1299577669404 380.874033040032,511.8043896124832 379.93434041924604,511.4623694691575 380.41915003949237,512.3369891762969 380.8886216022783,513.2199367691559 381.3426121020178,514.1109432933442 381.78098324880693,515.0097373396434 382.2036015105476,515.91604512668 382.6103381536234,516.8295905843227 383.00106928211267,517.7500954377751 383.3756758755286,518.677279292342 383.7340438250739,519.6108597188392 384.0760639683996,520.550552339625" stroke="black" stroke-linecap="round" stroke-width="1" /><polyline clip-path="url(#border_clip)" fill="none" points="384.0760639683996,520.550552339625 384.40163212285677,521.4960709152243 384.7106491172317,522.4471274315194 385.0030208219544,523.4034321874825 385.27865817777143,524.3646938834208 385.537477222874,525.3306197097099 385.77939911847363,526.300915435986 386.0043501728175,527.2752855007712 386.21226186363526,528.253433101505 386.4030708590118,529.2350602849526 386.57671903667875,530.2198680379649 386.73315350171896,531.2075563785601 386.87232660267904,532.1978244473016 386.9941959460842,533.190370598943 387.09872440935186,534.1848924943113 387.1858801520995,535.181087192403 387.25563662584364,536.1786512426628 387.30797258208656,537.1772807774174 387.34287207878907,538.1766716044365 387.36032448522633,539.1765192995929 387.36032448522633,540.1765192995929 387.34287207878907,541.1763669947493 387.30797258208656,542.1757578217685 387.25563662584364,543.174387356523 387.1858801520995,544.1719514067828 387.09872440935186,545.1681461048746 386.9941959460842,546.1626680002429 386.87232660267904,547.1552141518841 386.73315350171896,548.1454822206258 386.57671903667875,549.1331705612209 386.4030708590118,550.1179783142331 386.21226186363526,551.0996054976808 386.0043501728175,552.0777530984146 385.77939911847363,553.0521231631999 385.537477222874,554.0224188894758 385.27865817777143,554.9883447157649 385.00302082195446,555.9496064117033 384.7106491172317,556.9059111676663 384.40163212285677,557.8569676839614 384.0760639683996,558.8024862595607 383.7340438250739,559.7421788803467 383.3756758755286,560.6757593068439 383.0010692821127,561.6029431614106" stroke="black" stroke-linecap="round" stroke-width="1" /><polyline clip-path="url(#border_clip)" fill="none" points="383.0010692821127,561.6029431614106 382.61033815362345,562.5234480148631 382.2036015105476,563.4369934725057 381.78098324880693,564.3433012595424 381.3426121020178,565.2420953058415 380.8886216022783,566.13310183003 380.4191500394924,567.016049422889 379.93434041924604,567.8906691300283 379.43434041924604,568.7566945338127 378.919302344336,569.6138618345149 378.3893830801028,570.4619099306713 377.84474404508774,571.3005804986167 377.285551141617,572.1296180711718 376.71197470526596,572.9487701154608 376.1241894529735,573.7577871098358 375.5223744298214,574.556422619883 374.9067129544958,575.3444333734898 374.2773925634459,576.1215793349468 373.6346049537594,576.8876237780657 372.97854592476887,577.6423333582885 372.30941531841,578.3854781837658 371.6274169583475,579.1168318853851 370.9327585878885,579.8361716857237 370.22565180670193,580.5432784669102 369.50631200636326,581.2379368373693 368.77495830474413,581.9199351974318 368.0318134792667,582.5890658037906 367.27710389904394,583.2451248327811 366.51105945592496,583.8879124424677 365.73391349446797,584.5172328335175 364.94590274086124,585.1328943088431 364.14726723081395,585.7347093319952 363.33825023643897,586.3224945842877 362.51909819214995,586.8960710206388 361.69006061959493,587.4552639241095 360.8513900516495,587.9999029591245 360.00334195549306,588.5298222233578 359.14617465479097,589.0448602982678 358.2801492510065,589.5448602982678 357.4055295438671,590.0296699185142 356.5225819510082,590.4991414813001 355.6315754268198,590.9531319810396 354.73278138052063,591.3915031278286" stroke="black" stroke-linecap="round" stroke-width="1" /><polyline clip-path="url(#border_clip)" fill="none" points="354.73278138052063,591.3915031278286 353.82647359348397,591.8141213895693 352.91292813584136,592.2208580326452 351.9924232823889,592.6115891611345 351.0652394278221,592.9861957545504 350.1316590013249,593.3445637040957 349.191966380539,593.6865838474214 348.24644780493963,594.0121520018785 347.2953912886445,594.3211689962534 346.33908653268145,594.6135407009762 345.3778248367431,594.8891780567932 344.411899010454,595.1479971018957 343.44160328417803,595.3899189974953 342.46723321939277,595.6148700518393 341.489085618659,595.822781742657 340.5074584352113,596.0135907380336 339.52265068219907,596.1872389157005 338.53496234160394,596.3436733807407 337.54469427286233,596.4828464817008 336.552148121221,596.6047158251059 335.55762622585274,596.7092442883736 334.561431527761,596.7964000311213 333.56386747750116,596.8661565048653 332.56523794274653,596.9184924611084 331.5658471157275,596.9533919578108 330.5659994205711,596.9708443642481 329.5659994205711,596.9708443642481 328.56615172541467,596.9533919578108 327.56676089839556,596.9184924611084 326.568131363641,596.8661565048653 325.5705673133811,596.7964000311213 324.57437261528935,596.7092442883736 323.57985071992107,596.6047158251059 322.58730456827976,596.4828464817008 321.59703649953815,596.3436733807407 320.609348158943,596.1872389157005 319.6245404059308,596.0135907380336 318.6429132224831,595.822781742657 317.6647656217493,595.6148700518393 316.69039555696406,595.3899189974953 315.72009983068807,595.1479971018957 314.754174004399,594.8891780567932 313.79291230846064,594.6135407009762" stroke="black" stroke-linecap="round" stroke-width="1" /><polyline clip-path="url(#border_clip)" fill="none" points="313.79291230846064,594.6135407009762 312.8366075524976,594.3211689962534 311.8855510362024,594.0121520018785 310.9400324606031,593.6865838474214 310.0003398398172,593.3445637040957 309.06675941331997,592.9861957545504 308.13957555875317,592.6115891611345 307.21907070530074,592.2208580326452 306.3055252476581,591.8141213895693 305.39921746062146,591.3915031278286 304.5004234143223,590.9531319810396 303.6094168901339,590.4991414813001 302.72646929727495,590.0296699185142 301.85184959013554,589.5448602982678 300.9858241863511,589.0448602982678 300.128656885649,588.5298222233578 299.2806087894926,587.9999029591245 298.44193822154716,587.4552639241095 297.6129006489921,586.8960710206388 296.79374860470307,586.3224945842877 295.98473161032814,585.7347093319952 295.1860961002808,585.1328943088431 294.39808534667407,584.5172328335175 293.6209393852171,583.8879124424677 292.8548949420981,583.2451248327811 292.10018536187533,582.5890658037906 291.35704053639796,581.9199351974318 290.6256868347788,581.2379368373693 289.9063470344401,580.5432784669102 289.19924025325355,579.8361716857237 288.5045818827945,579.1168318853851 287.82258352273203,578.3854781837658 287.15345291637317,577.6423333582885 286.49739388738266,576.8876237780657 285.8546062776961,576.1215793349467 285.22528588664625,575.3444333734897 284.6096244113206,574.556422619883 284.00780938816854,573.7577871098357 283.4200241358761,572.9487701154608 282.846447699525,572.1296180711718 282.28725479605424,571.3005804986167 281.74261576103925,570.4619099306713 281.212696496806,569.6138618345149" stroke="black" stroke-linecap="round" stroke-width="1" /><polyline clip-path="url(#border_clip)" fill="none" points="281.212696496806,569.6138618345149 280.69765842189594,568.7566945338127 280.19765842189594,567.8906691300283 279.7128488016496,567.0160494228888 279.2433772388637,566.1331018300299 278.78938673912415,565.2420953058415 278.3510155923351,564.3433012595424 277.92839733059435,563.4369934725057 277.52166068751853,562.5234480148631 277.13092955902925,561.6029431614106 276.7563229656134,560.6757593068438 276.39795501606807,559.7421788803466 276.0559348727424,558.8024862595607 275.7303667182852,557.8569676839613 275.4213497239103,556.9059111676662 275.1289780191875,555.9496064117031 274.85334066337055,554.9883447157648 274.594521618268,554.0224188894758 274.35259972266834,553.0521231631998 274.12764866832447,552.0777530984145 273.9197369775067,551.0996054976807 273.72892798213013,550.117978314233 273.5552798044632,549.1331705612208 273.04024172955314,549.9903378619229 272.51032246532,550.8383859580794 271.9656834303049,551.6770565260248 271.4064905268342,552.5060940985799 270.8329140904831,553.3252461428689 270.2451288381906,554.1342631372438 269.6433138150386,554.932898647291 269.0276523397129,555.7209094008979 268.3983319486631,556.4980553623548 267.7555443389765,557.2640998054738 267.099485309986,558.0188093856966 266.43035470362713,558.761954211174 265.74835634356464,559.4933079127932 265.05369797310567,560.2126477131319 264.3465911919191,560.9197544943185 263.62725139158044,561.6144128647775 262.89589768996126,562.2964112248399 262.1527528644839,562.9655418311988 261.39804328426106,563.6216008601893 260.63199884114204,564.2643884698758" stroke="black" stroke-linecap="round" stroke-width="1" /><polyline clip-path="url(#border_clip)" fill="none" points="260.63199884114204,564.2643884698758 259.8548528796851,564.8937088609257 259.06684212607837,565.5093703362513 258.2682066160311,566.1111853594034 257.45918962165615,566.6989706116959 256.64003757736714,567.2725470480469 255.81100000481206,567.8317399515176 254.97232943686663,568.3763789865327 254.12428134071018,568.906298250766 253.26711404000807,569.421336325676 252.40108863622362,569.921336325676 251.52646892908422,570.4061459459224 250.6435213362253,570.8756175087083 249.7525148120369,571.3296080084477 248.85372076573773,571.7679791552368 247.94741297870107,572.1905974169775 247.03386752105845,572.5973340600533 246.113362667606,572.9880651885426 245.1861788130392,573.3626717819585 244.252598386542,573.7210397315039 243.31290576575606,574.0630598748295 242.36738719015673,574.3886280292867 241.41633067386158,574.6976450236616 240.46002591789852,574.9900167283844 239.4987642219602,575.2656540842014 238.5328383956711,575.5244731293039 237.56254266939507,575.7663950249035 236.5881726046098,575.9913460792475 235.610025003876,576.1992577700652 234.62839782042832,576.3900667654417 233.64359006741608,576.5637149431086 232.65590172682093,576.7201494081489 231.66563365807934,576.859322509109 230.673087506438,576.9811918525141 229.67856561106973,577.0857203157818 228.68237091297797,577.1728760585295 227.68480686271815,577.2426325322735 226.68617732796355,577.2949684885165 225.68678650094444,577.329867985219 224.68693880578803,577.3473203916562 223.68693880578803,577.3473203916562 222.68709111063163,577.329867985219 221.68770028361251,577.2949684885165" stroke="black" stroke-linecap="round" stroke-width="1" /><polyline clip-path="url(#border_clip)" fill="none" points="221.68770028361251,577.2949684885165 220.68907074885792,577.2426325322735 219.6915066985981,577.1728760585295 218.69531200050633,577.0857203157818 217.70079010513805,576.9811918525141 216.70824395349672,576.859322509109 215.71797588475513,576.7201494081489 214.73028754415998,576.5637149431086 213.74547979114774,576.3900667654417 212.76385260770007,576.1992577700652 211.78570500696625,575.9913460792475 210.811334942181,575.7663950249035 209.84103921590497,575.5244731293039 208.87511338961588,575.2656540842014 207.91385169367754,574.9900167283844 206.95754693771448,574.6976450236616 206.00649042141933,574.3886280292867 205.06097184582,574.0630598748295 204.12127922503407,573.7210397315039 203.18769879853684,573.3626717819585 202.26051494397004,572.9880651885426 201.34001009051758,572.5973340600533 200.42646463287497,572.1905974169775 199.5201568458383,571.7679791552368 198.62136279953913,571.3296080084477 197.73035627535074,570.8756175087083 196.8474086824918,570.4061459459224 195.9727889753524,569.921336325676 195.10676357156794,569.421336325676 194.24959627086582,568.906298250766 193.40154817470938,568.3763789865327 192.56287760676395,567.8317399515176 191.7338400342089,567.2725470480469 190.91468798991988,566.6989706116959 190.10567099554493,566.1111853594034 189.3070354854976,565.5093703362513 188.51902473189088,564.8937088609257 187.74187877043389,564.2643884698758 186.97583432731489,563.6216008601893 186.2211247470921,562.9655418311988 185.4779799216147,562.2964112248399 184.7466262199955,561.6144128647775 184.02728641965683,560.9197544943185" stroke="black" stroke-linecap="round" stroke-width="1" /><polyline clip-path="url(#border_clip)" fill="none" points="184.02728641965683,560.9197544943185 183.32017963847028,560.2126477131319 182.62552126801128,559.4933079127932 181.94352290794876,558.761954211174 181.2743923015899,558.0188093856966 180.6183332725994,557.2640998054738 179.97554566291285,556.4980553623548 179.346225271863,555.7209094008979 178.73056379653733,554.932898647291 178.12874877338527,554.1342631372438 177.54096352109278,553.3252461428689 176.96738708474172,552.5060940985799 176.40819418127097,551.6770565260248 175.86355514625595,550.8383859580794 175.33363588202275,549.9903378619229 174.8185978071127,549.1331705612208 174.3185978071127,548.2671451574363 173.83378818686634,547.392525450297 173.36431662408043,546.509577857438 172.91032612434088,545.6185713332496 172.4719549775518,544.7197772869504 172.0493367158111,543.8134694999137 171.6426000727353,542.8999240422711 171.251868944246,541.9794191888187 170.87726235083008,541.0522353342519 170.51889440128477,540.1186549077547 170.1768742579591,539.1789622869687 169.85130610350194,538.2334437113694 169.54228910912698,537.2823871950742 169.24991740440424,536.3260824391111 168.97428004858725,535.3648207431728 168.71546100348473,534.3988949168837 168.47353910788507,533.4285991906077 168.2485880535412,532.4542291258224 168.04067636272345,531.4760815250886 167.8498673673469,530.4944543416409 167.67621918967995,529.5096465886287 167.51978472463972,528.5219582480336 167.38061162367964,527.531690179292 167.2587422802745,526.5391440276507 167.15421381700685,525.5446221322824 167.0670580742592,524.5484274341906 166.99730160051507,523.5508633839307" stroke="black" stroke-linecap="round" stroke-width="1" /><polyline clip-path="url(#border_clip)" fill="none" points="166.99730160051507,523.5508633839307 166.94496564427212,522.5522338491762 166.9100661475696,521.552843022157 166.89261374113232,520.5529953270006 166.89261374113232,519.5529953270006 166.9100661475696,518.5531476318442 166.94496564427212,517.5537568048251 166.99730160051507,516.5551272700706 167.0670580742592,515.5575632198107 167.15421381700685,514.5613685217189 167.2587422802745,513.5668466263506 167.38061162367964,512.5743004747093 167.51978472463972,511.5840324059677 167.67621918967995,510.5963440653726 167.8498673673469,509.6115363123604 168.04067636272345,508.6299091289127 168.2485880535412,507.65176152817884 168.47353910788507,506.67739146339363 168.71546100348473,505.7070957371176 168.97428004858725,504.7411699108285 169.24991740440424,503.77990821489016 169.54228910912698,502.82360345892715 169.85130610350194,501.87254694263197 170.1768742579591,500.9270283670326 170.51889440128477,499.9873357462467 170.87726235083008,499.0537553197495 171.25186894424598,498.1265714651827 171.64260007273526,497.20606661173025 172.04933671581108,496.29252115408764 172.47195497755177,495.38621336705097 172.91032612434086,494.48741932075177 173.3643166240804,493.5964127965634 173.8337881868663,492.71346520370446 174.31859780711264,491.838845496565 174.81859780711264,490.9728200927806 175.3336358820227,490.11565279207844 175.8635551462559,489.267604695922 176.40819418127091,488.42893412797656 176.96738708474166,487.59989655542154 177.54096352109272,486.7807445111325 178.1287487733852,485.97172751675754 178.73056379653727,485.17309200671025 179.34622527186295,484.3850812531035" stroke="black" stroke-linecap="round" stroke-width="1" /><polyline clip-path="url(#border_clip)" fill="none" points="179.34622527186295,484.3850812531035 179.9755456629128,483.6079352916465 180.61833327259933,482.84189084852756 181.27439230158984,482.08718126830473 181.9435229079487,481.34403644282736 182.62552126801123,480.6126827412082 183.32017963847022,479.8933429408695 184.02728641965678,479.18623615968295 184.74662621999545,478.4915777892239 185.47797992161463,477.80957942916143 186.22112474709203,477.14044882280257 186.97583432731483,476.484389793812 187.74187877043383,475.84160218412546 186.74203107527742,475.82414977768815 185.7426402482583,475.7892502809857 184.7440107135037,475.73691432474277 183.74644666324386,475.6671578509986 182.7502519651521,475.58000210825094 181.75573006978382,475.4754736449833 180.7631839181425,475.3536043015782 179.7729158494009,475.2144312006181 178.78522750880575,475.05799673557783 177.8004197557935,474.8843485579109 176.81879257234584,474.6935395625344 175.84064497161202,474.4856278717166 174.86627490682676,474.26067681737277 173.89597918055074,474.01875492177305 172.93005335426164,473.75993587667057 171.9687916583233,473.48429852085354 171.01248690236025,473.19192681613083 170.06143038606507,472.88290982175585 169.11591181046575,472.5573416672987 168.1762191896798,472.21532152397305 167.24263876318258,471.85695357442773 166.31545490861578,471.4823469810118 165.39495005516332,471.0916158525225 164.4814045975207,470.6848792094467 163.57509681048404,470.262260947706 162.67630276418487,469.82388980091696 161.78529623999648,469.3698993011774 160.90234864713753,468.9004277383915 160.02772893999813,468.4156181181451 159.16170353621368,467.9156181181451" stroke="black" stroke-linecap="round" stroke-width="1" /><polyline clip-path="url(#border_clip)" fill="none" points="159.16170353621368,467.9156181181451 158.30453623551156,467.40058004323504 157.45648813935512,466.8706607790018 156.6178175714097,466.3260217439868 155.78877999885464,465.76682884051604 154.96962795456562,465.193252404165 154.16061096019067,464.6054671518725 153.36197545014335,464.00365212872043 152.57396469653662,463.3879906533948 151.79681873507963,462.75867026234494 151.03077429196063,462.1158826526584 150.27606471173783,461.4598236236679 149.53291988626043,460.79069301730897 148.80156618464125,460.1086946572465 148.08222638430257,459.41403628678745 147.37511960311602,458.7069295056009 146.680461232657,457.9875897052623 145.99846287259447,457.25623600364304 145.3293322662356,456.51309117816567 144.6732732372451,455.75838159794284 144.03048562755856,454.9923371548239 143.4011652365087,454.2151911933669 142.785503761183,453.42718043976015 142.18368873803092,452.62854492971286 141.59590348573846,451.8195279353379 141.0223270493874,451.00037589104886 140.46313414591663,450.17133831849384 139.91849511090157,449.33266775054835 139.38857584666835,448.48461965439196 138.87353777175827,447.6274523536898 138.37353777175827,446.76142694990534 137.88872815151194,445.88680724276594 137.41925658872606,445.003859649907 136.96526608898648,444.11285312571863 136.52689494219737,443.2140590794194 136.10427668045668,442.30775129238276 135.69754003738086,441.39420583474015 135.30680890889158,440.4737009812877 134.93220231547565,439.5465171267209 134.57383436593034,438.61293670022366 134.23181422260467,437.6732440794377 133.90624606814748,436.7277255038384 133.59722907377255,435.77666898754325" stroke="black" stroke-linecap="round" stroke-width="1" /><polyline clip-path="url(#border_clip)" fill="none" points="133.59722907377255,435.77666898754325 133.30485736904978,434.8203642315802 133.02922001323276,433.85910253564185 132.77040096813022,432.89317670935276 132.52847907253056,431.9228809830767 132.30352801818668,430.9485109182915 132.09561632736893,429.97036331755766 131.9048073319924,428.98873613410996 131.73115915432544,428.00392838109775 131.57472468928518,427.01624004050257 131.4355515883251,426.025971971761 131.31368224491996,425.03342582011965 131.20915378165228,424.03890392475137 131.12199803890462,423.0427092266596 131.0522415651605,422.0451451763997 130.99990560891757,421.04651564164516 130.96500611221506,420.04712481462605 130.9475537057778,419.04727711946964 130.9475537057778,418.0472771194696 130.96500611221506,417.0474294243132 130.99990560891757,416.04803859729407 131.0522415651605,415.0494090625395 131.12199803890462,414.0518450122796 131.20915378165228,413.05565031418786 131.3136822449199,412.0611284188196 131.43555158832504,411.0685822671782 131.57472468928512,410.07831419843666 131.73115915432533,409.0906258578415 131.90480733199223,408.10581810482927 132.09561632736876,407.12419092138157 132.3035280181865,406.1460433206478 132.5284790725304,405.1716732558625 132.77040096813005,404.20137752958647 133.0292200132326,403.2354517032974 133.3048573690496,402.27419000735904 133.59722907377238,401.317885251396 133.9062460681473,400.36682873510085 134.2318142226045,399.4213101595015 134.57383436593017,398.48161753871557 134.93220231547548,397.5480371122183 135.3068089088914,396.6208532576515 135.6975400373807,395.7003484041991 136.1042766804565,394.78680294655646" stroke="black" stroke-linecap="round" stroke-width="1" /><polyline clip-path="url(#border_clip)" fill="none" points="136.1042766804565,394.78680294655646 136.5268949421972,393.8804951595198 136.9652660889863,392.9817011132206 137.4192565887259,392.0906945890322 137.88872815151177,391.2077469961733 138.3735377717581,390.3331272890338 138.8735377717581,389.4671018852494 139.38857584666818,388.60993458454726 139.9184951109014,387.7618864883908 140.46313414591646,386.9232159204454 141.02232704938723,386.0941783478903 141.5959034857383,385.2750263036013 142.18368873803075,384.46600930922637 142.78550376118284,383.667373799179 143.40116523650852,382.8793630455723 144.0304856275584,382.1022170841153 144.67327323724496,381.3361726409963 145.32933226623547,380.5814630607735 145.99846287259433,379.8383182352961 146.68046123265685,379.1069645336769 147.37511960311588,378.38762473333827 148.08222638430243,377.68051795215166 148.8015661846411,376.9858595816927 149.5329198862603,376.30386122163014 150.2760647117377,375.6347306152713 151.03077429196048,374.97867158628077 151.79681873507948,374.3358839765942 152.57396469653648,373.70656358554436 153.3619754501432,373.0909021102187 154.16061096019052,372.4890870870666 154.96962795456548,371.90130183477413 155.7887799988545,371.32772539842307 156.61781757140955,370.7685324949523 157.45648813935497,370.22389345993724 158.30453623551142,369.6939741957041 159.16170353621357,369.178936120794 160.027728939998,368.678936120794 160.90234864713742,368.1941265005476 161.78529623999637,367.7246549377617 162.67630276418475,367.27066443802215 163.57509681048393,366.83229329123304 164.4814045975206,366.40967502949235 165.3949500551632,366.00293838641653" stroke="black" stroke-linecap="round" stroke-width="1" /><polyline clip-path="url(#border_clip)" fill="none" points="165.3949500551632,366.00293838641653 166.31545490861566,365.61220725792725 167.24263876318247,365.2376006645113 168.1762191896797,364.879232714966 169.11591181046563,364.53721257164034 170.06143038606498,364.2116444171832 171.01248690236017,363.9026274228082 171.96879165832323,363.61025571808545 172.93005335426156,363.3346183622685 173.89597918055065,363.07579931716595 174.86627490682667,362.8338774215663 175.84064497161194,362.6089263672224 176.81879257234576,362.40101467640466 177.80041975579346,362.21020568102807 178.7852275088057,362.03655750336117 179.77291584940085,361.8801230383209 180.76318391814243,361.7409499373608 181.75573006978377,361.6190805939557 182.75025196515207,361.51455213068806 183.74644666324383,361.4273963879404 184.74401071350368,361.3576399141963 185.74264024825828,361.3053039579533 186.7420310752774,361.2704044612508 187.7418787704338,361.25295205481353 188.74187877043383,361.25295205481353 189.74172646559023,361.2704044612508 190.74111729260935,361.3053039579533 191.73974682736394,361.3576399141962 192.7373108776238,361.42739638794035 193.73350557571555,361.514552130688 194.72802747108386,361.6190805939557 195.7205736227252,361.7409499373608 196.71084169146678,361.8801230383209 197.69853003206194,362.0365575033611 198.68333778507417,362.21020568102807 199.66496496852187,362.4010146764046 200.6431125692557,362.60892636722235 201.61748263404095,362.8338774215662 202.58777836031697,363.07579931716595 203.55370418660607,363.33461836226843 204.5149658825444,363.61025571808545 205.47127063850746,363.9026274228082 206.42232715480264,364.21164441718315" stroke="black" stroke-linecap="round" stroke-width="1" /><polyline clip-path="url(#border_clip)" fill="none" points="206.42232715480264,364.21164441718315 207.367845730402,364.53721257164034 208.30753835118793,364.879232714966 207.82272873094158,364.00461300782655 207.35325716815566,363.12166541496765 206.89926666841612,362.23065889077924 206.46089552162704,361.33186484448004 206.0382772598863,360.42555705744337 205.6315406168105,359.51201159980076 205.24080948832122,358.5915067463483 204.86620289490529,357.66432289178147 204.50783494535997,356.73074246528427 204.1658148020343,355.79104984449833 203.84024664757715,354.845531268899 203.5312296532022,353.8944747526038 203.23885794847945,352.93816999664074 202.96322059266245,351.9769083007024 202.7044015475599,351.0109824744133 202.46247965196022,350.0406867481373 202.23752859761635,349.06631668335206 202.0296169067986,348.0881690826182 201.83880791142204,347.1065418991705 201.6651597337551,346.1217341461583 201.50872526871487,345.1340458055631 201.3695521677548,344.14377773682156 201.24768282434962,343.1512315851802 201.14315436108197,342.15670968981186 201.0559986183343,341.1605149917201 200.9862421445902,340.1629509414603 200.93390618834724,339.16432140670565 200.89900669164473,338.16493057968654 200.88155428520744,337.16508288453014 200.88155428520744,336.1650828845301 200.89900669164473,335.1652351893737 200.93390618834724,334.16584436235456 200.9862421445902,333.1672148276 201.0559986183343,332.1696507773401 201.14315436108197,331.17345607924835 201.24768282434962,330.1789341838801 201.36955216775476,329.1863880322387 201.50872526871484,328.1961199634971 201.66515973375508,327.2084316229019 201.838807911422,326.2236238698897" stroke="black" stroke-linecap="round" stroke-width="1" /><polyline clip-path="url(#border_clip)" fill="none" points="201.838807911422,326.2236238698897 202.02961690679857,325.241996686442 202.23752859761632,324.2638490857082 202.4624796519602,323.28947902092295 202.70440154755985,322.3191832946469 202.96322059266237,321.3532574683578 203.23885794847936,320.3919957724195 203.5312296532021,319.4356910164564 203.84024664757706,318.48463450016123 204.16581480203422,317.5391159245619 204.5078349453599,316.59942330377595 204.8662028949052,315.6658428772787 205.24080948832113,314.7386590227119 205.6315406168104,313.81815416925946 206.03827725988623,312.9046087116168 206.46089552162692,311.9983009245801 206.899266668416,311.099506878281 207.35325716815555,310.20850035409256 207.82272873094146,309.3255527612336 208.30753835118782,308.4509330540942 208.80753835118782,307.58490765030973 209.32257642609787,306.72774034960764 209.8524956903311,305.87969225345114 210.39713472534615,305.0410216855057 210.95632762881692,304.21198411295063 211.52990406516798,303.3928320686616 212.11768931746047,302.5838150742867 212.71950434061253,301.78517956423934 213.3351658159382,300.9971688106326 213.96448620698806,300.2200228491756 214.60727381667462,299.45397840605665 215.26333284566513,298.6992688258338 215.932463452024,297.9561240003564 216.61446181208652,297.2247702987372 217.30912018254554,296.50543049839854 218.0162269637321,295.798323717212 218.73556676407077,295.10366534675296 219.46692046568995,294.42166698669047 220.21006529116735,293.75253638033155 220.96477487139015,293.09647735134104 221.73081931450915,292.4536897416545 222.50796527596614,291.8243693506046 223.2959760295729,291.20870787527895" stroke="black" stroke-linecap="round" stroke-width="1" /><polyline clip-path="url(#border_clip)" fill="none" points="223.2959760295729,291.20870787527895 224.09461153962022,290.60689285212686 224.90362853399517,290.0191075998344 225.7227805782842,289.44553116348334 226.55181815083924,288.88633826001256 227.3904887187847,288.34169922499757 228.23853681494114,287.81177996076434 229.0957041156433,287.29674188585426 229.96172951942773,286.79674188585426 230.83634922656717,286.3119322656079 231.71929681942612,285.842460702822 232.6103033436145,285.3884702030824 233.5090973899137,284.9500990562933 234.41540517695037,284.5274807945526 235.32895063459299,284.1207441514768 236.24945548804544,283.7300130229875 237.17663934261225,283.3554064295716 238.11021976910948,282.9970384800263 239.0499123898954,282.6550183367006 239.99543096549476,282.3294501822434 240.94648748178994,282.0204331878685 241.902792237753,281.7280614831457 242.86405393369134,281.45242412732875 243.82997975998043,281.1936050822262 244.80027548625645,280.9516831866265 245.77464555104171,280.7267321322827 246.75279315177553,280.51882044146487 247.73442033522323,280.32801144608834 248.71922808823547,280.1543632684214 249.70691642883062,279.99792880338117 250.6971844975722,279.8587557024211 251.68973064921354,279.73688635901595 252.68425254458185,279.63235789574827 253.68044724267364,279.5452021530006 254.6780112929335,279.4754456792565 255.6766408276881,279.42310972301357 256.67603165470723,279.388210226311 257.67587934986364,279.37075781987375 258.67587934986364,279.37075781987375 259.6757270450201,279.388210226311 260.6751178720392,279.4231097230135 261.67374740679384,279.4754456792565 262.67131145705366,279.54520215300056" stroke="black" stroke-linecap="round" stroke-width="1" /><polyline clip-path="url(#border_clip)" fill="none" points="262.67131145705366,279.54520215300056 263.6675061551455,279.6323578957482 264.66202805051375,279.7368863590159 265.6545742021551,279.85875570242104 266.6448422708967,279.9979288033811 267.63253061149186,280.1543632684213 268.6173383645041,280.3280114460883 269.5989655479518,280.5188204414648 270.5771131486856,280.72673213228256 271.5514832134709,280.9516831866265 272.5217789397469,281.19360508222616 273.487704766036,281.45242412732864 274.44896646197435,281.72806148314567 275.4052712179374,282.02043318786843 276.3563277342326,282.32945018224336 277.30184630983194,282.65501833670055 278.2415389306178,282.9970384800262 279.1751193571151,283.35540642957153 280.1023032116819,283.73001302298746 281.02280806513437,284.12074415147674 281.936353522777,284.52748079455256 282.8426613098137,284.95009905629325 283.74145535611285,285.38847020308236 284.63246188030126,285.8424607028219 285.5154094731602,286.3119322656078 286.3900291802996,286.79674188585415 287.2560545840841,287.2967418858542 288.11322188478624,287.8117799607642 288.9612699809427,288.34169922499746 289.7999405488881,288.8863382600125 290.6289781214432,289.4455311634832 291.4481301657322,290.01910759983434 292.2571471601072,290.6068928521268 293.0557826701545,291.2087078752789 293.8437934237612,291.82436935060457 294.6209393852182,292.45368974165444 295.38698382833724,293.096477351341 296.14169340856006,293.7525363803315 296.88483823403743,294.42166698669035 297.6161919356566,295.1036653467529 298.33553173599535,295.79832371721193 299.0426385171819,296.5054304983985 299.7372968876409,297.22477029873716" stroke="black" stroke-linecap="round" stroke-width="1" /><polyline clip-path="url(#border_clip)" fill="none" points="299.7372968876409,297.22477029873716 300.4192952477034,297.95612400035634 301.0884258540623,298.69926882583377 301.74448488305285,299.45397840605654 302.3872724927394,300.2200228491755 303.01659288378926,300.9971688106325 303.63225435911494,301.7851795642393 304.234069382267,302.5838150742866 304.8218546345595,303.39283206866156 305.39543107091055,304.2119841129506 305.9546239743813,305.04102168550565 306.4992630093964,305.8796922534511 307.0291822736296,306.72774034960753 307.5442203485396,307.5849076503097 308.0442203485397,308.4509330540941 308.529029968786,309.32555276123355 308.99850153157195,310.2085003540925 309.4524920313115,311.09950687828086 309.8908631781006,311.99830092458006 310.3134814398413,312.9046087116168 310.7202180829171,313.8181541692594 311.1109492114064,314.7386590227119 311.4855558048223,315.6658428772787 311.84392375436767,316.5994233037759 312.18594389769333,317.5391159245618 312.51151205215047,318.4846345001612 312.82052904652545,319.43569101645636 313.1129007512482,320.3919957724194 313.3885381070652,321.35325746835775 313.64735715216773,322.31918329464685 313.88927904776745,323.2894790209229 314.11423010211126,324.26384908570816 314.3221417929291,325.241996686442 314.5129507883056,326.2236238698897 314.68659896597256,327.2084316229019 315.2016370408826,326.35126432219977 315.7315563051158,325.5032162260433 316.27619534013087,324.66454565809784 316.83538824360164,323.8355080855428 317.4089646799527,323.0163560412538 317.99674993224517,322.2073390468788 318.59856495539725,321.40870353683147 319.21422643072293,320.62069278322474" stroke="black" stroke-linecap="round" stroke-width="1" /><polyline clip-path="url(#border_clip)" fill="none" points="319.21422643072293,320.62069278322474 319.8435468217728,319.84354682176775 320.48633443145934,319.0775023786488 321.14239346044985,318.32279279842595 321.8115240668087,317.5796479729486 322.49352242687127,316.84829427132934 323.1881807973303,316.12895447099066 323.89528757851684,315.4218476898041 324.6146273788555,314.7271893193451 325.3459810804747,314.04519095928254 326.08912590595213,313.3760603529237 326.84383548617495,312.72000132393316 327.6098799292939,312.07721371424657 328.3870258907509,311.44789332319675 329.17503664435765,310.83223184787107 329.973672154405,310.230416824719 330.7826891487799,309.64263157242647 331.60184119306894,309.06905513607546 332.430878765624,308.5098622326047 333.26954933356944,307.96522319758964 334.11759742972595,307.4353039333564 334.9747647304281,306.9202658584463 335.8407901342125,306.4202658584463 336.71540984135197,305.9354562382 337.5983574342109,305.46598467541406 338.4893639583993,305.0119941756745 339.3881580046985,304.57362302888544 340.29446579173515,304.1510047671447 341.2080112493778,303.74426812406887 342.12851610283025,303.3535369955796 343.05569995739705,302.97893040216366 343.9892803838943,302.62056245261834 344.92897300468024,302.2785423092927 345.8744915802796,301.9529741548355 346.8255480965748,301.64395716046056 347.78185285253784,301.3515854557378 348.74311454847617,301.07594809992077 349.70904037476527,300.8171290548182 350.6793361010413,300.57520715921856 351.6537061658266,300.3502561048747 352.6318537665604,300.14234441405694 353.61348095000807,299.95153541868035 354.59828870302033,299.77788724101345" stroke="black" stroke-linecap="round" stroke-width="1" /><polyline clip-path="url(#border_clip)" fill="none" points="354.59828870302033,299.77788724101345 355.5859770436155,299.62145277597324 356.5762451123571,299.48227967501316 357.56879126399843,299.360410331608 358.56331315936677,299.25588186834034 359.5595078574585,299.1687261255927 360.5570719077184,299.0989696518485 361.555701442473,299.0466336956056 362.5550922694921,299.01173419890307 363.55493996464855,298.9942817924658 364.55493996464855,298.9942817924658 365.554787659805,299.01173419890307 366.5541784868241,299.0466336956056 367.5528080215787,299.0989696518485 368.5503720718386,299.1687261255926 369.54656676993034,299.2558818683403 370.5410886652987,299.36041033160797 371.53363481694004,299.4822796750131 372.52390288568165,299.6214527759732 373.5115912262768,299.7778872410134 374.49639897928904,299.95153541868035 375.47802616273674,300.1423444140569 376.4561737634706,300.35025610487463 377.43054382825585,300.5752071592185 378.40083955453184,300.8171290548182 379.36676538082094,301.0759480999207 380.3280270767593,301.35158545573773 381.2843318327224,301.64395716046045 382.23538834901757,301.95297415483543 383.1809069246169,302.27854230929256 384.12059954540285,302.6205624526183 385.05417997190006,302.9789304021636 385.9813638264669,303.3535369955795 386.90186867991935,303.74426812406875 387.815414137562,304.1510047671446 388.7217219245987,304.5736230288853 389.6205159708979,305.01199417567443 390.5115224950863,305.46598467541395 391.39447008794525,305.9354562381999 392.26908979508465,306.4202658584462 393.13511519886913,306.9202658584462 393.9922824995713,307.4353039333563 394.8403305957277,307.9652231975895" stroke="black" stroke-linecap="round" stroke-width="1" /><polyline clip-path="url(#border_clip)" fill="none" points="394.8403305957277,307.9652231975895 395.67900116367315,308.5098622326045 396.50803873622823,309.0690551360753 397.32719078051724,309.64263157242635 398.1362077748922,310.2304168247189 398.9348432849396,310.83223184787096 399.7228540385463,311.4478933231966 400.5000000000033,312.07721371424645 401.2660444431223,312.72000132393305 402.0207540233451,313.37606035292356 402.7638988488225,314.0451909592824 403.4952525504417,314.727189319345 404.2145923507804,315.421847689804 404.921699131967,316.12895447099055 405.616357502426,316.8482942713292 406.2983558624885,317.5796479729484 406.96748646884737,318.32279279842584 407.62354549783794,319.07750237864866 408.2663331075245,319.84354682176763 408.89565349857435,320.6206927832246 409.5113149739,321.40870353683135 410.1131299970521,322.2073390468787 410.7009152493446,323.01635604125363 411.27449168569564,323.83550808554264 411.8336845891664,324.6645456580977 412.37832362418146,325.5032162260432 412.9082428884147,326.35126432219965 413.42328096332477,327.2084316229018 413.92328096332477,328.0744570266862 414.40809058357115,328.9490767338257 414.87756214635704,329.83202432668463 415.3315526460966,330.72303085087304 415.7699237928857,331.62182489717225 416.1925420546264,332.5281326842089 416.59927869770223,333.4416781418515 416.9900098261915,334.362182995304 417.36461641960744,335.2893668498708 417.72298436915275,336.2229472763681 418.0650045124784,337.162639897154 418.3905726669356,338.10815847275336 418.6995896613106,339.05921498904854 418.9919613660333,340.0155197450116 419.26759872185033,340.97678144094994" stroke="black" stroke-linecap="round" stroke-width="1" /><polyline clip-path="url(#border_clip)" fill="none" points="419.26759872185033,340.97678144094994 419.5264177669529,341.94270726723903 419.76833966255253,342.9130029935151 419.9932907168964,343.88737305830034 420.20120240771416,344.8655206590342 420.39201140309075,345.8471478424819 420.56565958075765,346.83195559549415 420.7220940457979,347.8196439360893 420.861267146758,348.8099120048309 420.98313649016313,349.80245815647226 421.0876649534308,350.7969800518406 421.1748206961785,351.79317474993235 421.2445771699226,352.79073880019223 421.2969131261655,353.7893683349468 421.33181262286803,354.7887591619659 421.34926502930534,355.7886068571224 421.34926502930534,356.78860685712243 421.33181262286803,357.78845455227884 421.2969131261655,358.78784537929795 421.2445771699226,359.7864749140526 421.1748206961785,360.7840389643124 421.0876649534308,361.7802336624042 420.98313649016313,362.7747555577725 420.861267146758,363.76730170941386 420.7220940457979,364.75756977815547 420.5656595807577,365.74525811875066 420.39201140309075,366.73006587176286 420.2012024077142,367.71169305521056 419.99329071689647,368.6898406559444 419.7683396625526,369.66421072072967 419.52641776695293,370.6345064470057 419.2675987218504,371.6004322732948 418.99196136603337,372.5616939692332 418.6995896613106,373.51799872519626 418.39057266693567,374.46905524149145 418.0650045124785,375.4145738170908 417.7229843691528,376.35426643787673 417.3646164196075,377.28784686437393 416.99000982619157,378.2150307189408 416.5992786977023,379.1355355723933 416.1925420546265,380.0490810300359 415.7699237928858,380.95538881707256 415.33155264609667,381.85418286337176" stroke="black" stroke-linecap="round" stroke-width="1" /><polyline clip-path="url(#border_clip)" fill="none" points="415.33155264609667,381.85418286337176 414.87756214635715,382.7451893875602 414.4080905835712,383.62813698041913 413.9232809633249,384.50275668755853 413.4232809633248,385.368782091343 412.9082428884148,386.22594939204515 412.3783236241816,387.0739974882016 411.8336845891665,387.9126680561471 411.27449168569575,388.74170562870216 410.7009152493447,389.5608576729912 410.11312999705217,390.36987466736616 409.51131497390014,391.16851017741345 408.89565349857446,391.95652093102024 408.2663331075246,392.73366689247723 407.623545497838,393.4997113355962 406.9674864688475,394.254420915819 406.2983558624886,394.99756574129646 405.61635750242607,395.72891944291564 404.92169913196705,396.4482592432543 404.2145923507805,397.1553660244409 403.4952525504418,397.85002439489995 402.76389884882263,398.53202275496244 402.0207540233452,399.2011533613213 401.26604444312244,399.8572123903119 400.5000000000034,400.4999999999984" stroke="black" stroke-linecap="round" stroke-width="1" /></svg>